<?xml version="1.0" standalone="no"?>
<!DOCTYPE svg PUBLIC "-//W3C//DTD SVG 20010904//EN"
 "http://www.w3.org/TR/2001/REC-SVG-20010904/DTD/svg10.dtd">
<svg version="1.0" xmlns="http://www.w3.org/2000/svg"
 width="700.000000pt" height="700.000000pt" viewBox="0 0 700.000000 700.000000"
 preserveAspectRatio="xMidYMid meet">
<metadata>
Created by potrace 1.14, written by Peter Selinger 2001-2017
</metadata>
<g transform="translate(0.000000,700.000000) scale(0.100000,-0.100000)"
fill="#000000" stroke="none">
<path d="M3365 6986 c-289 -67 -492 -283 -535 -571 -13 -85 -9 -151 17 -280
42 -214 -30 -447 -188 -604 -83 -82 -170 -134 -279 -167 -47 -14 -115 -35
-152 -46 -176 -53 -359 -212 -448 -388 -263 -522 114 -1143 695 -1144 219 0
393 67 547 212 223 210 297 485 216 803 -73 289 -20 507 166 695 93 92 151
128 290 178 170 61 277 141 365 271 219 327 122 757 -216 961 -130 78 -337
113 -478 80z"/>
<path d="M4350 5344 c-199 -43 -381 -167 -494 -338 -171 -258 -169 -618 5
-873 115 -169 269 -273 489 -333 158 -43 237 -86 336 -185 171 -170 236 -383
189 -624 -23 -122 -17 -289 14 -381 68 -199 232 -363 431 -431 99 -34 280 -38
385 -10 406 112 617 558 441 936 -85 181 -213 292 -429 370 -155 57 -254 124
-332 225 -141 184 -178 387 -114 635 67 263 28 498 -115 699 -148 207 -384
327 -641 325 -55 0 -129 -7 -165 -15z"/>
<path d="M3315 3593 c-276 -59 -521 -254 -636 -508 -59 -132 -74 -205 -74
-375 0 -131 4 -167 23 -233 50 -176 110 -272 269 -440 122 -128 176 -218 210
-347 47 -187 0 -410 -121 -570 -64 -85 -110 -170 -134 -250 -106 -350 90 -720
443 -837 69 -23 97 -27 205 -27 108 0 136 4 205 27 224 74 391 251 451 477 26
99 24 256 -5 350 -30 97 -51 138 -123 237 -108 150 -151 273 -151 433 0 116
19 196 73 307 33 67 62 105 153 200 158 167 218 265 268 435 30 105 37 297 14
409 -73 361 -349 639 -707 713 -96 20 -269 20 -363 -1z"/>
<path d="M1325 3484 c-148 -32 -302 -130 -391 -247 -294 -388 -108 -939 361
-1068 105 -28 286 -24 385 10 199 68 363 232 431 431 30 89 38 278 15 370 -56
224 -230 412 -447 484 -106 35 -249 43 -354 20z"/>
</g>
</svg>
