<?xml version="1.0" encoding="UTF-8"?>
<svg width="3761px" height="992px" viewBox="0 0 3761 992" version="1.1" xmlns="http://www.w3.org/2000/svg" xmlns:xlink="http://www.w3.org/1999/xlink">
    <title>New Dawn Logo White</title>
    <g id="New-Dawn-Logo-White" stroke="none" stroke-width="1" fill="none" fill-rule="evenodd">
        <path d="M1155.2,375.72 C1102.72,375.72 1064.32,396.84 1043.2,435.24 L1041.92,435.24 L1040.64,382.12 L1003.52,382.12 L1003.52,681 L1046.4,681 L1046.4,527.4 C1046.4,457.64 1084.8,414.12 1146.24,414.12 C1203.84,414.12 1237.76,451.24 1237.76,513.32 L1237.76,681 L1280.64,681 L1280.64,508.84 C1280.64,426.28 1232.64,375.72 1155.2,375.72 Z M1648,544.68 L1648,519.72 C1648,432.68 1588.48,375.72 1496.32,375.72 C1404.8,375.72 1340.8,440.36 1340.8,531.88 C1340.8,625.96 1408,687.4 1512.32,687.4 C1559.68,687.4 1601.28,673.96 1628.16,650.28 L1628.16,606.12 L1626.24,606.12 C1596.8,634.92 1559.04,649 1513.6,649 C1439.36,649 1390.08,608.68 1384.32,544.68 L1648,544.68 Z M1496.96,414.12 C1559.68,414.12 1602.56,450.6 1608.32,507.56 L1384.32,507.56 C1393.92,451.88 1438.08,414.12 1496.96,414.12 Z M2034.56,681 L2142.08,382.12 L2098.56,382.12 L2014.72,623.4 L2013.44,623.4 L1925.76,382.12 L1890.56,382.12 L1801.6,625.32 L1800.32,625.32 L1717.12,382.12 L1671.68,382.12 L1779.2,681 L1822.72,681 L1907.2,450.6 L1908.48,450.6 L1992.32,681 L2034.56,681 Z M2502.56,681 L2502.56,233 L2418.72,233 L2418.72,405.8 L2417.44,405.8 C2396.96,385.32 2368.16,373.8 2331.04,373.8 C2245.92,373.8 2183.84,439.72 2183.84,530.6 C2183.84,621.48 2245.92,687.4 2331.04,687.4 C2375.84,687.4 2409.12,670.12 2428.96,640.68 L2430.24,640.68 L2432.8,681 L2502.56,681 Z M2345.12,613.16 C2299.68,613.16 2268.32,579.24 2268.32,530.6 C2268.32,481.96 2299.68,448.04 2345.12,448.04 C2389.92,448.04 2421.28,481.96 2421.28,530.6 C2421.28,579.24 2389.92,613.16 2345.12,613.16 Z M2878.24,681 L2878.24,380.2 L2808.48,380.2 L2805.28,419.24 L2804,419.24 C2784.8,390.44 2750.88,373.8 2706.72,373.8 C2621.6,373.8 2559.52,439.72 2559.52,530.6 C2559.52,621.48 2621.6,687.4 2706.72,687.4 C2751.52,687.4 2784.8,670.12 2804.64,640.68 L2805.92,640.68 L2808.48,681 L2878.24,681 Z M2720.8,613.16 C2675.36,613.16 2644,579.24 2644,530.6 C2644,481.96 2675.36,448.04 2720.8,448.04 C2765.6,448.04 2796.96,481.96 2796.96,530.6 C2796.96,579.24 2765.6,613.16 2720.8,613.16 Z M3403.04,380.2 L3317.92,380.2 L3261.6,574.12 L3260.32,574.12 L3196.32,380.2 L3130.4,380.2 L3065.76,574.12 L3064.48,574.12 L3008.16,380.2 L2919.2,380.2 L3020.32,681 L3100.32,681 L3161.12,499.24 L3162.4,499.24 L3222.56,681 L3302.56,681 L3403.04,380.2 Z M3612.32,373.8 C3568.8,373.8 3536.16,391.72 3518.24,423.08 L3516.96,423.08 L3513.76,380.2 L3444,380.2 L3444,681 L3527.84,681 L3527.84,521 C3527.84,474.28 3550.88,448.04 3589.92,448.04 C3625.12,448.04 3645.6,471.08 3645.6,512.68 L3645.6,681 L3729.44,681 L3729.44,502.44 C3729.44,421.16 3685.92,373.8 3612.32,373.8 Z" id="Combined-Shape" fill="#FFFFFF" fill-rule="nonzero"></path>
        <path d="M384,480 C454.692448,480 512,537.307552 512,608 C512,646.880846 494.664466,681.712762 467.301028,705.188114 L466.481576,705.880624 C448.309269,723.348174 437,747.903376 437,775.1 C437,796.789164 444.192671,816.79839 456.322862,832.872528 C471.06813,849.74701 480,871.83043 480,896 C480,949.019336 437.019336,992 384,992 C330.980664,992 288,949.019336 288,896 C288,871.83043 296.93187,849.74701 311.674898,832.870453 C323.807325,816.798403 331,796.789171 331,775.1 C331,747.903339 319.6907,723.348106 301.518348,705.880551 C273.681162,682.403398 256,647.266527 256,608 C256,537.307552 313.307552,480 384,480 Z M528,232 C589.855892,232 640,282.144108 640,344 C640,356.010014 638.109639,367.57851 634.610226,378.42418 L634.617339,378.441412 C626.653434,403.318108 628.810969,431.335522 642.9,455.738439 C655.750042,477.995365 676.166619,493.160133 699.024547,499.859453 C738.88722,511.528734 768,548.36454 768,592 C768,645.019336 725.019336,688 672,688 C618.980664,688 576,645.019336 576,592 C576,583.599637 577.078948,575.451275 579.105824,567.685937 C583.92435,545.246113 580.756675,521.012978 568.376878,499.57054 C554.311914,475.209308 531.182005,459.344703 505.707808,453.77752 C454.53111,443.444913 416,398.222168 416,344 C416,282.144108 466.144108,232 528,232 Z M96,496 C149.019336,496 192,538.980664 192,592 C192,645.019336 149.019336,688 96,688 C42.980664,688 0,645.019336 0,592 C0,538.980664 42.980664,496 96,496 Z M384,0 C437.019336,0 480,42.980664 480,96 C480,140.1491 450.197805,177.337524 409.613504,188.545182 C387.327178,195.445668 367.484859,210.440823 354.9,232.238439 C340.771821,256.709163 338.641536,284.814497 346.68396,309.742762 L346.671715,309.766983 C350.131778,320.557387 352,332.06052 352,344 C352,405.855892 301.855892,456 240,456 C178.144108,456 128,405.855892 128,344 C128,289.576005 166.818486,244.218553 218.27817,234.104935 C243.527421,228.426535 266.417089,212.617502 280.376878,188.438439 C292.763015,166.98502 295.927592,142.738045 291.100469,120.287417 C289.076547,112.530582 288,104.391011 288,96 C288,42.980664 330.980664,0 384,0 Z" id="Combined-Shape" fill="#8FCC14"></path>
    </g>
</svg>